<?xml version="1.0" encoding="UTF-8" standalone="no"?>
<svg
   version="1.1"
   id="svg13"
   width="1049.3563"
   height="1080.6511"
   xml:space="preserve"
   xmlns:xlink="http://www.w3.org/1999/xlink"
   xmlns="http://www.w3.org/2000/svg"
   xmlns:svg="http://www.w3.org/2000/svg"><defs
     id="defs7"><linearGradient
       id="lgrad"
       x1="0.96095437"
       y1="5.6480727"
       x2="33.695217"
       y2="38.382336"
       gradientTransform="matrix(30.793419,0,0,27.012745,213.14239,151.45634)"
       gradientUnits="userSpaceOnUse"><stop
         offset="0%"
         style="stop-color:rgb(219,52,69);stop-opacity:1.00"
         id="stop2" /><stop
         offset="100%"
         style="stop-color:rgb(247,23,53);stop-opacity:1.00"
         id="stop4" /></linearGradient><linearGradient
       xlink:href="#lgrad"
       id="linearGradient2649"
       x1="241.44212"
       y1="308.53317"
       x2="1250.8578"
       y2="1185.9613"
       gradientUnits="userSpaceOnUse" /></defs><g
     id="tomato"
     transform="matrix(1.0410281,0,0,1.0449274,-252.69237,-161.00335)"
     style="display:inline;fill:#000080"><path
       fill="url(#lgrad)"
       d="m 861.89637,305.58372 c -19.8139,0 -38.9933,1.90352 -57.4228,5.10489 -23.6209,-2.99948 -79.0249,-6.66232 -103.5689,-6.66232 -244.37139,0 -458.17119,91.62849 -458.17119,412.37147 0,260.6091 203.3016,471.87094 489.60819,471.87094 286.30663,0 518.39183,-211.26184 518.39183,-471.87094 -0.03,-324.43464 -270.70363,-410.81404 -388.83713,-410.81404 z"
       id="path9"
       style="fill:url(#linearGradient2649);fill-opacity:1;stroke-width:28.8413" /><path
       fill="#77b255"
       d="m 456.53328,154.0809 c 47.2131,47.1842 79.89019,65.35416 94.42609,141.61029 8.5947,45.10764 65.3542,43.55021 65.3542,43.55021 0,0 -112.56719,50.84705 -159.78019,98.06009 0,0 141.61019,-47.21304 188.82329,-47.21304 0,0 94.3972,47.21304 94.3972,94.39724 0,0 0,-94.39724 -47.1842,-94.39724 0,0 141.5815,0 141.5815,94.39724 0,0 0,-141.61031 -47.2131,-141.61031 0,0 141.6392,-47.18419 188.8522,0 0,0 -48.6263,-49.60684 -141.6392,-47.18419 0,0 47.2419,-47.21304 141.6392,-47.21304 0,0 -152.5123,-43.57904 -199.7253,50.84702 0,0 -39.9451,-39.94505 39.945,-119.83517 0,0 -123.4403,21.7751 -123.4403,116.20119 0,0 -44.7616,-1.15367 -76.2561,-36.31107 C 554.56447,190.39197 456.53328,154.0809 456.53328,154.0809 Z"
       id="path11"
       style="fill:#77b255;fill-opacity:1;stroke-width:28.8413" /></g><g
     aria-label="{ }"
     id="text301"
     style="font-weight:bold;font-size:512.709px;font-family:Inter;-inkscape-font-specification:'Inter Bold';letter-spacing:140px;display:inline;stroke-width:5.34071"><path
       d="m 313.39787,817.46827 v -58.08031 c -43.15058,0 -51.88994,-16.56837 -51.88994,-51.70787 v -53.16442 c 0,-28.03878 -12.01661,-53.16443 -64.8169,-63.90656 v -7.2828 c 52.80029,-10.74212 64.8169,-35.86778 64.8169,-63.72448 V 466.4374 c 0,-35.32157 8.73936,-51.88993 51.88994,-51.88993 v -57.89825 c -73.55626,0 -126.17448,12.19869 -126.17448,101.95918 v 40.23746 c 0,37.32434 -14.01938,53.16442 -55.89547,53.16442 v 69.91486 c 41.87609,0 55.89547,15.84009 55.89547,53.16443 v 40.41953 c 0,89.76049 52.61822,101.95917 126.17448,101.95917 z"
       id="path302" /><path
       d="m 735.95849,356.46715 v 58.08032 c 43.15057,0 51.88993,16.56836 51.88993,51.70787 v 53.16442 c 0,28.03877 12.01662,53.16443 64.81691,63.90655 v 7.2828 c -52.80029,10.74213 -64.81691,35.86778 -64.81691,63.72449 v 53.16442 c 0,35.32157 -8.73936,51.88994 -51.88993,51.88994 v 57.89824 c 73.55626,0 126.17447,-12.19868 126.17447,-101.95917 v -40.23746 c 0,-37.32434 14.01939,-53.16443 55.89548,-53.16443 v -69.91486 c -41.87609,0 -55.89548,-15.84008 -55.89548,-53.16442 v -40.41953 c 0,-89.76049 -52.61821,-101.95918 -126.17447,-101.95918 z"
       id="path304" /></g></svg>
