<?xml version="1.0" encoding="UTF-8" standalone="no"?>
<svg
   version="1.1"
   id="svg13"
   viewBox="0 0 1049.3563 1080.6511"
   xml:space="preserve"
   xmlns="http://www.w3.org/2000/svg"
   xmlns:svg="http://www.w3.org/2000/svg"><defs
     id="defs7"><linearGradient
       id="lgrad"
       x1="0.96095437"
       y1="5.6480727"
       x2="33.695217"
       y2="38.382336"
       gradientTransform="matrix(30.793419,0,0,27.012745,213.14239,151.45634)"
       gradientUnits="userSpaceOnUse"><stop
         offset="0%"
         style="stop-color:rgb(219,52,69);stop-opacity:1.00"
         id="stop2" /><stop
         offset="100%"
         style="stop-color:rgb(247,23,53);stop-opacity:1.00"
         id="stop4" /></linearGradient><filter
       id="mask-powermask-path-effect9281_inverse"
       style="color-interpolation-filters:sRGB"
       height="100"
       width="100"
       x="-50"
       y="-50"><feColorMatrix
         id="mask-powermask-path-effect9281_primitive1"
         values="1"
         type="saturate"
         result="fbSourceGraphic" /><feColorMatrix
         id="mask-powermask-path-effect9281_primitive2"
         values="-1 0 0 0 1 0 -1 0 0 1 0 0 -1 0 1 0 0 0 1 0 "
         in="fbSourceGraphic" /></filter><filter
       id="mask-powermask-path-effect10842_inverse"
       style="color-interpolation-filters:sRGB"
       height="100"
       width="100"
       x="-50"
       y="-50"><feColorMatrix
         id="mask-powermask-path-effect10842_primitive1"
         values="1"
         type="saturate"
         result="fbSourceGraphic" /><feColorMatrix
         id="mask-powermask-path-effect10842_primitive2"
         values="-1 0 0 0 1 0 -1 0 0 1 0 0 -1 0 1 0 0 0 1 0 "
         in="fbSourceGraphic" /></filter></defs><path
     id="path11"
     style="display:inline;fill:#000000;fill-opacity:1;stroke-width:28.8413"
     d="m 456.53328,154.0809 c 47.2131,47.1842 79.89019,65.35416 94.42609,141.61029 8.5947,45.10764 65.3542,43.55021 65.3542,43.55021 0,0 -112.56719,50.84705 -159.78019,98.06009 0,0 141.61019,-47.21304 188.82329,-47.21304 0,0 94.3972,47.21304 94.3972,94.39724 0,0 0,-94.39724 -47.1842,-94.39724 0,0 141.5815,0 141.5815,94.39724 0,0 0,-141.61031 -47.2131,-141.61031 0,0 141.6392,-47.18419 188.8522,0 0,0 -48.6263,-49.60684 -141.6392,-47.18419 0,0 47.2419,-47.21304 141.6392,-47.21304 0,0 -152.5123,-43.57904 -199.7253,50.84702 0,0 -39.9451,-39.94505 39.945,-119.83517 0,0 -123.4403,21.7751 -123.4403,116.20119 0,0 -44.7616,-1.15367 -76.2561,-36.31107 C 554.56447,190.39197 456.53328,154.0809 456.53328,154.0809 Z m 244.37107,149.945 c -244.37115,0 -458.17087,91.62899 -458.17087,412.37165 0,260.60884 203.30133,471.87045 489.60764,471.87045 286.30638,0 518.39158,-211.26161 518.39158,-471.87045 -0.03,-324.43432 -270.70253,-410.81465 -388.83591,-410.81465 -19.81388,0 -38.99385,1.90515 -57.42333,5.10651 -23.62087,-2.99947 -79.02514,-6.66351 -103.56911,-6.66351 z m 248.78313,191.19525 c 70.65722,0 121.20122,11.6741 121.20122,97.57518 v 38.68204 c 0,35.71952 13.4678,50.87824 53.6935,50.87824 v 66.90992 c -40.2257,0 -53.6935,15.15872 -53.6935,50.87824 v 38.50634 c 0,85.90108 -50.544,97.57705 -121.20122,97.57705 v -55.40905 c 41.44993,0 49.84368,-15.85669 49.84368,-49.65955 v -50.87824 c 0,-26.65895 11.54444,-50.70447 62.26384,-60.98472 v -6.97006 c -50.7194,-10.28025 -62.26384,-34.32535 -62.26384,-61.15855 v -50.87824 c 0,-33.62862 -8.39375,-49.48572 -49.84368,-49.48572 z m -405.90695,0.17383 v 55.40905 c -41.44993,0 -49.84556,15.85669 -49.84556,49.65955 v 50.87824 c 0,26.65896 -11.5426,50.70447 -62.26192,60.98472 v 6.97006 c 50.71932,10.28025 62.26192,34.32536 62.26192,61.15855 v 50.87824 c 0,33.62862 8.39563,49.48572 49.84556,49.48572 v 55.58288 c -70.65726,0 -121.20305,-11.6741 -121.20305,-97.57518 v -38.68204 c 0,-35.71952 -13.466,-50.87824 -53.69167,-50.87824 v -66.90992 c 40.22567,0 53.69167,-15.15872 53.69167,-50.87824 v -38.50821 c 0,-85.90108 50.54579,-97.57518 121.20305,-97.57518 z"
     transform="matrix(1.0410281,0,0,1.0449274,-252.69237,-161.00335)" /></svg>
